<?xml version="1.0" encoding="UTF-8" standalone="no"?>

<!--
  SPDX-License-Identifier: GPL-3.0-or-later
  SPDX-FileCopyrightText: 2022 Soren Stoutner <soren@stoutner.com>

  This file is part of Privacy Browser Android <https://www.stoutner.com/privacy-browser-android/>.

  It is a modified version of `aod_tablet_rounded_grade200`, which is part of the Android Material icon set and is released under the Apache License 2.0 <https://fonts.google.com/icons>.

  This program is free software: you can redistribute it and/or modify it under
  the terms of the GNU General Public License as published by the Free Software
  Foundation, either version 3 of the License, or (at your option) any later
  version.

  This program is distributed in the hope that it will be useful, but WITHOUT
  ANY WARRANTY; without even the implied warranty of MERCHANTABILITY or FITNESS
  FOR A PARTICULAR PURPOSE.  See the GNU General Public License for more
  details.

  You should have received a copy of the GNU General Public License along with
  this program.  If not, see <https://www.gnu.org/licenses/>. -->

<svg
    xmlns="http://www.w3.org/2000/svg"
    viewBox="0 0 48 48"
    id="icon" >

    <path
        d="M17 22.8q-.55 0-.925-.375T15.7 21.5q0-.55.375-.95.375-.4.925-.4h14q.55 0 .95.4.4.4.4.95 0 .55-.4.925T31 22.8Zm2 6q-.55 0-.925-.375T17.7 27.5q0-.55.375-.95.375-.4.925-.4h10q.55 0 .95.4.4.4.4.95 0 .55-.4.925T29 28.8ZM4.8 40.75q-1.55 0-2.6-1.05t-1.05-2.6V10.9q0-1.55 1.05-2.6t2.6-1.05h38.4q1.55 0 2.6 1.05t1.05 2.6v26.2q0 1.55-1.05 2.6t-2.6 1.05Zm4.9-3.65h28.6V10.9H9.7ZM6.05 10.9H4.8v26.2h1.25Zm35.9 0v26.2h1.25V10.9Zm1.25 0h-1.25 1.25Zm-38.4 0h1.25H4.8Z" />
</svg>
