<?xml version="1.0" encoding="UTF-8" standalone="no"?>

<!--
  SPDX-License-Identifier: GPL-3.0-or-later
  SPDX-FileCopyrightText: 2024 Soren Stoutner <soren@stoutner.com>

  This file is part of Privacy Browser Android <https://www.stoutner.com/privacy-browser-android/>.

  It is a modified version of `arrow_downward_rounded_fill0_weight400_grade0_24px`, which is part of the Android Material icon set and is released under the Apache License 2.0 <https://fonts.google.com/icons>.

  This program is free software: you can redistribute it and/or modify it under
  the terms of the GNU General Public License as published by the Free Software
  Foundation, either version 3 of the License, or (at your option) any later
  version.

  This program is distributed in the hope that it will be useful, but WITHOUT
  ANY WARRANTY; without even the implied warranty of MERCHANTABILITY or FITNESS
  FOR A PARTICULAR PURPOSE.  See the GNU General Public License for more
  details.

  You should have received a copy of the GNU General Public License along with
  this program.  If not, see <https://www.gnu.org/licenses/>. -->

<svg
    xmlns="http://www.w3.org/2000/svg"
    viewBox="0 -960 960 960"
    id="icon" >

    <path
        d="M440-313v-447q0-17 11.5-28.5T480-800q17 0 28.5 11.5T520-760v447l196-196q12-12 28-11.5t28 12.5q11 12 11.5 28T772-452L508-188q-6 6-13 8.5t-15 2.5q-8 0-15-2.5t-13-8.5L188-452q-11-11-11-27.5t11-28.5q12-12 28.5-12t28.5 12l195 195Z" />
</svg>
