<?xml version="1.0" encoding="UTF-8" standalone="no"?>

<!--
  SPDX-License-Identifier: GPL-3.0-or-later
  SPDX-FileCopyrightText: 2020, 2022 Soren Stoutner <soren@stoutner.com>

  This file is part of Privacy Browser Android <https://www.stoutner.com/privacy-browser-android/>.

  This is a modified version of `cookie`, which was created by Google.  It is released under the Apache License 2.0 and can be downloaded from Material Design Icons <https://pictogrammers.com/library/mdi/icon/cookie/>.

  This program is free software: you can redistribute it and/or modify it under
  the terms of the GNU General Public License as published by the Free Software
  Foundation, either version 3 of the License, or (at your option) any later
  version.

  This program is distributed in the hope that it will be useful, but WITHOUT
  ANY WARRANTY; without even the implied warranty of MERCHANTABILITY or FITNESS
  FOR A PARTICULAR PURPOSE.  See the GNU General Public License for more
  details.

  You should have received a copy of the GNU General Public License along with
  this program.  If not, see <https://www.gnu.org/licenses/>. -->

<svg
    xmlns="http://www.w3.org/2000/svg"
    viewBox="0 0 24 24"
    id="icon" >

    <path
        d="M12,3A9,9 0 0,0 3,12A9,9 0 0,0 12,21A9,9 0 0,0 21,12C21,11.5 20.96,11 20.87,10.5C20.6,10 20,10 20,10H18V9C18,8 17,8 17,8H15V7C15,6 14,6 14,6H13V4C13,3 12,3 12,3M9.5,6A1.5,1.5 0 0,1 11,7.5A1.5,1.5 0 0,1 9.5,9A1.5,1.5 0 0,1 8,7.5A1.5,1.5 0 0,1 9.5,6M6.5,10A1.5,1.5 0 0,1 8,11.5A1.5,1.5 0 0,1 6.5,13A1.5,1.5 0 0,1 5,11.5A1.5,1.5 0 0,1 6.5,10M11.5,11A1.5,1.5 0 0,1 13,12.5A1.5,1.5 0 0,1 11.5,14A1.5,1.5 0 0,1 10,12.5A1.5,1.5 0 0,1 11.5,11M16.5,13A1.5,1.5 0 0,1 18,14.5A1.5,1.5 0 0,1 16.5,16H16.5A1.5,1.5 0 0,1 15,14.5H15A1.5,1.5 0 0,1 16.5,13M11,16A1.5,1.5 0 0,1 12.5,17.5A1.5,1.5 0 0,1 11,19A1.5,1.5 0 0,1 9.5,17.5A1.5,1.5 0 0,1 11,16Z" />
</svg>
