<?xml version="1.0" encoding="UTF-8" standalone="no"?>

<!--
  SPDX-License-Identifier: GPL-3.0-or-later
  SPDX-FileCopyrightText: 2017, 2020, 2022 Soren Stoutner <soren@stoutner.com>

  This file is part of Privacy Browser Android <https://www.stoutner.com/privacy-browser-android/>.

  It is derived from elements of `create_new_folder`, which is part of the Android Material icon set and is released under the Apache License 2.0 <https://fonts.google.com/icons>.

  This program is free software: you can redistribute it and/or modify it under
  the terms of the GNU General Public License as published by the Free Software
  Foundation, either version 3 of the License, or (at your option) any later
  version.

  This program is distributed in the hope that it will be useful, but WITHOUT
  ANY WARRANTY; without even the implied warranty of MERCHANTABILITY or FITNESS
  FOR A PARTICULAR PURPOSE.  See the GNU General Public License for more
  details.

  You should have received a copy of the GNU General Public License along with
  this program.  If not, see <https://www.gnu.org/licenses/>. -->

<svg
    xmlns="http://www.w3.org/2000/svg"
    viewBox="0 0 48 48"
    id="icon" >

    <path
        d="M 8 8 C 5.78 8 4.0195313 9.78 4.0195312 12 L 4 36 C 4 38.22 5.78 40 8 40 L 40 40 C 42.22 40 44 38.22 44 36 L 44 16 C 44 13.78 42.22 12 40 12 L 24 12 L 20 8 L 8 8 z M 22 18 L 26 18 L 26 24 L 32 24 L 32 28 L 26 28 L 26 34 L 22 34 L 22 28 L 16 28 L 16 24 L 22 24 L 22 18 z " />
</svg>
