<?xml version="1.0" encoding="UTF-8" standalone="no"?>

<!--
  SPDX-License-Identifier: GPL-3.0-or-later
  SPDX-FileCopyrightText: 2020, 2022 Soren Stoutner <soren@stoutner.com>

  This file is part of Privacy Browser Android <https://www.stoutner.com/privacy-browser-android/>.

  It is a modified version of `devices_other`, which is part of the Android Material icon set and is released under the Apache License 2.0 <https://fonts.google.com/icons>.

  This program is free software: you can redistribute it and/or modify it under
  the terms of the GNU General Public License as published by the Free Software
  Foundation, either version 3 of the License, or (at your option) any later
  version.

  This program is distributed in the hope that it will be useful, but WITHOUT
  ANY WARRANTY; without even the implied warranty of MERCHANTABILITY or FITNESS
  FOR A PARTICULAR PURPOSE.  See the GNU General Public License for more
  details.

  You should have received a copy of the GNU General Public License along with
  this program.  If not, see <https://www.gnu.org/licenses/>. -->

<svg
    xmlns="http://www.w3.org/2000/svg"
    viewBox="0 0 24 24"
    id="icon" >

    <path
        d="M3 6h18V4H3c-1.1 0-2 .9-2 2v12c0 1.1.9 2 2 2h4v-2H3V6zm10 6H9v1.78c-.61.55-1 1.33-1 2.22s.39 1.67 1 2.22V20h4v-1.78c.61-.55 1-1.34 1-2.22s-.39-1.67-1-2.22V12zm-2 5.5c-.83 0-1.5-.67-1.5-1.5s.67-1.5 1.5-1.5 1.5.67 1.5 1.5-.67 1.5-1.5 1.5zM22 8h-6c-.5 0-1 .5-1 1v10c0 .5.5 1 1 1h6c.5 0 1-.5 1-1V9c0-.5-.5-1-1-1zm-1 10h-4v-8h4v8z" />
</svg>
