<?xml version="1.0" encoding="UTF-8" standalone="no"?>

<!--
  SPDX-License-Identifier: GPL-3.0-or-later
  SPDX-FileCopyrightText: 2022 Soren Stoutner <soren@stoutner.com>

  This file is part of Privacy Browser Android <https://www.stoutner.com/privacy-browser-android/>.

  It is a modified version of `list_alt_rounded_24`, which is part of the Android Material icon set and is released under the Apache License 2.0 <https://fonts.google.com/icons>.

  This program is free software: you can redistribute it and/or modify it under
  the terms of the GNU General Public License as published by the Free Software
  Foundation, either version 3 of the License, or (at your option) any later
  version.

  This program is distributed in the hope that it will be useful, but WITHOUT
  ANY WARRANTY; without even the implied warranty of MERCHANTABILITY or FITNESS
  FOR A PARTICULAR PURPOSE.  See the GNU General Public License for more
  details.

  You should have received a copy of the GNU General Public License along with
  this program.  If not, see <https://www.gnu.org/licenses/>. -->

<svg
    xmlns="http://www.w3.org/2000/svg"
    viewBox="0 0 24 24"
    id="icon" >

    <path
        d="M5 21q-.825 0-1.413-.587Q3 19.825 3 19V5q0-.825.587-1.413Q4.175 3 5 3h14q.825 0 1.413.587Q21 4.175 21 5v14q0 .825-.587 1.413Q19.825 21 19 21Zm0-2h14V5H5v14Zm3-2q.425 0 .713-.288Q9 16.425 9 16t-.287-.713Q8.425 15 8 15t-.713.287Q7 15.575 7 16t.287.712Q7.575 17 8 17Zm0-4q.425 0 .713-.288Q9 12.425 9 12t-.287-.713Q8.425 11 8 11t-.713.287Q7 11.575 7 12t.287.712Q7.575 13 8 13Zm0-4q.425 0 .713-.288Q9 8.425 9 8t-.287-.713Q8.425 7 8 7t-.713.287Q7 7.575 7 8t.287.712Q7.575 9 8 9Zm4 8h4q.425 0 .712-.288Q17 16.425 17 16t-.288-.713Q16.425 15 16 15h-4q-.425 0-.712.287Q11 15.575 11 16t.288.712Q11.575 17 12 17Zm0-4h4q.425 0 .712-.288Q17 12.425 17 12t-.288-.713Q16.425 11 16 11h-4q-.425 0-.712.287Q11 11.575 11 12t.288.712Q11.575 13 12 13Zm0-4h4q.425 0 .712-.288Q17 8.425 17 8t-.288-.713Q16.425 7 16 7h-4q-.425 0-.712.287Q11 7.575 11 8t.288.712Q11.575 9 12 9ZM5 19V5v14Z" />
</svg>
