<?xml version="1.0" encoding="UTF-8" standalone="no"?>

<!--
  SPDX-License-Identifier: GPL-3.0-or-later
  SPDX-FileCopyrightText: 2020, 2022 Soren Stoutner <soren@stoutner.com>

  This file is part of Privacy Browser Android <https://www.stoutner.com/privacy-browser-android/>.

  It is a modified version of `location_off`, which is part of the Android Material icon set and is released under the Apache License 2.0 <https://fonts.google.com/icons>.

  This program is free software: you can redistribute it and/or modify it under
  the terms of the GNU General Public License as published by the Free Software
  Foundation, either version 3 of the License, or (at your option) any later
  version.

  This program is distributed in the hope that it will be useful, but WITHOUT
  ANY WARRANTY; without even the implied warranty of MERCHANTABILITY or FITNESS
  FOR A PARTICULAR PURPOSE.  See the GNU General Public License for more
  details.

  You should have received a copy of the GNU General Public License along with
  this program.  If not, see <https://www.gnu.org/licenses/>. -->

<svg
    xmlns="http://www.w3.org/2000/svg"
    viewBox="0 0 24 24"
    id="icon" >

    <path
        d="M12 6.5c1.38 0 2.5 1.12 2.5 2.5 0 .74-.33 1.39-.83 1.85l3.63 3.63c.98-1.86 1.7-3.8 1.7-5.48 0-3.87-3.13-7-7-7-1.98 0-3.76.83-5.04 2.15l3.19 3.19c.46-.52 1.11-.84 1.85-.84zm4.37 9.6l-4.63-4.63-.11-.11L3.27 3 2 4.27l3.18 3.18C5.07 7.95 5 8.47 5 9c0 5.25 7 13 7 13s1.67-1.85 3.38-4.35L18.73 21 20 19.73l-3.63-3.63z" />
</svg>
