<?xml version="1.0" encoding="UTF-8" standalone="no"?>

<!--
  SPDX-License-Identifier: GPL-3.0-or-later
  SPDX-FileCopyrightText: 2016, 2020, 2022-2023 Soren Stoutner <soren@stoutner.com>

  This file is part of Privacy Browser Android <https://www.stoutner.com/privacy-browser-android/>.

  It is derived from `security` and `language`, which is part of the Android Material icon set and is released under the Apache License 2.0 <https://fonts.google.com/icons>.

  This program is free software: you can redistribute it and/or modify it under
  the terms of the GNU General Public License as published by the Free Software
  Foundation, either version 3 of the License, or (at your option) any later
  version.

  This program is distributed in the hope that it will be useful, but WITHOUT
  ANY WARRANTY; without even the implied warranty of MERCHANTABILITY or FITNESS
  FOR A PARTICULAR PURPOSE.  See the GNU General Public License for more
  details.

  You should have received a copy of the GNU General Public License along with
  this program.  If not, see <https://www.gnu.org/licenses/>. -->

<svg
    xmlns="http://www.w3.org/2000/svg"
    viewBox="0 0 119.99999 119.99999"
    id="icon" >

    <path
        d="M 59.999994,0 10.909089,21.818179 V 54.54545 c 0,30.272691 20.945481,58.58183 49.090905,65.45454 C 88.14542,113.12728 109.0909,84.818141 109.0909,54.54545 V 21.818179 Z m -0.03735,22.600527 c 20.681907,0 37.436804,16.754959 37.436804,37.399467 0,20.644505 -16.754897,37.399469 -37.436804,37.399469 -20.644505,0 -37.362132,-16.754964 -37.362132,-37.399469 0,-20.644508 16.717627,-37.399467 37.362132,-37.399467 z m 0.03735,7.629496 c -3.104155,4.487939 -5.535086,9.461971 -7.143266,14.810099 h 14.286531 c -1.608175,-5.348128 -4.03911,-10.32216 -7.143265,-14.810099 z m -9.686433,1.496031 c -6.881499,2.356163 -12.603766,7.105754 -16.194117,13.314068 h 11.033115 c 1.196783,-4.674937 2.917037,-9.16273 5.161002,-13.314068 z m 19.372866,0 c 2.243969,4.151338 3.964654,8.639131 5.161429,13.314068 H 85.880544 C 82.290198,38.869206 76.567931,34.082217 69.686427,31.726054 Z M 31.052711,52.520275 c -0.598392,2.393566 -0.972463,4.899158 -0.972463,7.479719 0,2.580565 0.37407,5.086584 0.972463,7.48015 h 12.641154 c -0.299194,-2.468364 -0.523567,-4.936987 -0.523567,-7.48015 0,-2.543159 0.224368,-5.011355 0.523567,-7.479719 z m 20.195979,0 c -0.336573,2.430962 -0.598669,4.93656 -0.598669,7.479719 0,2.543163 0.262101,5.011786 0.598669,7.48015 h 17.503039 c 0.336618,-2.468364 0.598239,-4.936987 0.598239,-7.48015 0,-2.543159 -0.261625,-5.048757 -0.598239,-7.479719 z m 25.057436,0 c 0.299197,2.468364 0.523566,4.93656 0.523566,7.479719 0,2.543163 -0.224373,5.011786 -0.523566,7.48015 h 12.641153 c 0.598393,-2.393566 0.97246,-4.899585 0.97246,-7.48015 0,-2.580561 -0.374072,-5.086153 -0.97246,-7.479719 z M 34.119444,74.959868 c 3.590351,6.208304 9.312618,10.957903 16.194117,13.314069 C 48.069596,84.122594 46.349342,79.6348 45.152559,74.959868 Z m 18.737284,0 c 1.60818,5.34812 4.039111,10.322162 7.143266,14.810095 3.104155,-4.487933 5.53509,-9.461975 7.143265,-14.810095 z m 21.991128,0 c -1.196775,4.674932 -2.91746,9.162726 -5.161429,13.314069 6.881504,-2.356166 12.603771,-7.143162 16.194117,-13.314069 z" />
</svg>
