<?xml version="1.0" encoding="UTF-8" standalone="no"?>

<!--
  SPDX-License-Identifier: GPL-3.0-or-later
  SPDX-FileCopyrightText: 2016, 2020, 2022-2023 Soren Stoutner <soren@stoutner.com>

  This file is part of Privacy Browser Android <https://www.stoutner.com/privacy-browser-android/>.

  It is derived from `security` and `language`, which is part of the Android Material icon set and is released under the Apache License 2.0 <https://fonts.google.com/icons>.

  This program is free software: you can redistribute it and/or modify it under
  the terms of the GNU General Public License as published by the Free Software
  Foundation, either version 3 of the License, or (at your option) any later
  version.

  This program is distributed in the hope that it will be useful, but WITHOUT
  ANY WARRANTY; without even the implied warranty of MERCHANTABILITY or FITNESS
  FOR A PARTICULAR PURPOSE.  See the GNU General Public License for more
  details.

  You should have received a copy of the GNU General Public License along with
  this program.  If not, see <https://www.gnu.org/licenses/>. -->

<svg
    xmlns="http://www.w3.org/2000/svg"
    viewBox="0 0 256 256"
    id="icon" >

    <g transform="translate(0,160)" >

        <path
            d="M 127.99987 -160 L 23.272704 -113.45459 L 23.272704 -43.636481 C 23.272704 -12.886493 33.419058 16.901403 50.514219 41.26769 L 50.490415 41.26769 L 50.490415 96.03087 L 205.51116 96.03087 L 205.51116 41.26769 L 205.48552 41.26769 C 222.58071 16.901403 232.72704 -12.886493 232.72704 -43.636481 L 232.72704 -113.45459 L 127.99987 -160 z M 127.92022 -111.78559 C 172.04138 -111.78559 207.78533 -76.041485 207.78533 -32.000129 C 207.78533 0.8204346 187.9285 29.022302 159.55352 41.26769 L 96.346431 41.26769 C 68.02706 29.022262 48.214414 0.82036847 48.214414 -32.000129 C 48.214414 -76.041485 83.87887 -111.78559 127.92022 -111.78559 z M 127.99987 -95.509342 C 121.37773 -85.935126 116.1917 -75.323763 112.76092 -63.914495 L 143.23882 -63.914495 C 139.8081 -75.323763 134.62201 -85.935126 127.99987 -95.509342 z M 107.3355 -92.317814 C 92.65508 -87.291364 80.447449 -77.158817 72.788082 -63.914495 L 96.325373 -63.914495 C 98.878498 -73.887635 102.54843 -83.461672 107.3355 -92.317814 z M 148.66424 -92.317814 C 153.45132 -83.461672 157.12221 -73.887635 159.67528 -63.914495 L 183.21166 -63.914495 C 175.55231 -77.079037 163.34467 -87.291364 148.66424 -92.317814 z M 66.245724 -47.956854 C 64.969163 -42.850604 64.171139 -37.505293 64.171139 -32.000129 C 64.171139 -26.494957 64.969162 -21.148737 66.245724 -16.042488 L 93.213496 -16.042488 C 92.575222 -21.308306 92.096553 -26.574742 92.096553 -32.000129 C 92.096553 -37.425503 92.575212 -42.691034 93.213496 -47.956854 L 66.245724 -47.956854 z M 109.33044 -47.956854 C 108.61242 -42.770824 108.05328 -37.425503 108.05328 -32.000129 C 108.05328 -26.574742 108.61243 -21.308306 109.33044 -16.042488 L 146.67022 -16.042488 C 147.38834 -21.308306 147.94646 -26.574742 147.94646 -32.000129 C 147.94646 -37.425503 147.38833 -42.770824 146.67022 -47.956854 L 109.33044 -47.956854 z M 162.78625 -47.956854 C 163.42454 -42.691034 163.90319 -37.425503 163.90319 -32.000129 C 163.90319 -26.574742 163.42453 -21.308306 162.78625 -16.042488 L 189.75402 -16.042488 C 191.03059 -21.148737 191.8286 -26.494957 191.8286 -32.000129 C 191.8286 -37.505293 191.03058 -42.850604 189.75402 -47.956854 L 162.78625 -47.956854 z M 72.788082 -0.085762735 C 80.447449 13.158549 92.65508 23.291104 107.3355 28.317556 C 102.54843 19.461415 98.878498 9.8873683 96.325373 -0.085762735 L 72.788082 -0.085762735 z M 112.76092 -0.085762735 C 116.1917 11.323495 121.37773 21.934876 127.99987 31.509084 C 134.62201 21.934876 139.8081 11.323495 143.23882 -0.085762735 L 112.76092 -0.085762735 z M 159.67528 -0.085762735 C 157.12221 9.8873683 153.45132 19.461415 148.66424 28.317556 C 163.34467 23.291104 175.55231 13.078764 183.21166 -0.085762735 L 159.67528 -0.085762735 z M 144.54528 51.994007 C 148.66149 51.994007 151.79626 52.763054 153.94958 54.301136 C 156.11753 55.824571 157.40661 58.25622 157.81676 61.596058 L 148.43444 62.145374 C 148.18542 60.695182 147.65808 59.640489 146.85241 58.981312 C 146.0614 58.322132 144.96276 57.992542 143.55651 57.992542 C 142.39929 57.992542 141.52769 58.241566 140.94177 58.739613 C 140.35583 59.22301 140.06286 59.816273 140.06286 60.519398 C 140.06286 61.032091 140.30456 61.493519 140.78796 61.903675 C 141.2567 62.328479 142.36999 62.723989 144.1278 63.090198 C 148.47838 64.027696 151.59118 64.979849 153.46618 65.946643 C 155.35582 66.898791 156.72545 68.085318 157.57507 69.506214 C 158.43931 70.927109 158.87145 72.516471 158.87145 74.27428 C 158.87145 76.339705 158.30016 78.24401 157.15758 79.98717 C 156.01502 81.73033 154.41831 83.056019 152.36755 83.964221 C 150.31676 84.857773 147.73131 85.304553 144.6112 85.304553 C 139.13268 85.304553 135.33873 84.249862 133.22936 82.14049 C 131.12 80.03112 129.92614 77.350444 129.64782 74.098499 L 139.11803 73.505237 C 139.32311 75.043319 139.74059 76.215198 140.37048 77.020862 C 141.39586 78.324569 142.86071 78.976428 144.76501 78.976428 C 146.1859 78.976428 147.27721 78.646837 148.03893 77.987658 C 148.8153 77.313832 149.20348 76.537461 149.20348 75.658557 C 149.20348 74.823598 148.83727 74.076525 148.10485 73.417346 C 147.37243 72.758168 145.67321 72.135606 143.00719 71.549671 C 138.64198 70.568227 135.52915 69.264511 133.66882 67.638538 C 131.79382 66.012565 130.85632 63.939803 130.85632 61.420277 C 130.85632 59.765006 131.33239 58.204942 132.28454 56.740101 C 133.25133 55.260611 134.69421 54.103381 136.61315 53.268421 C 138.54674 52.418814 141.19079 51.994007 144.54528 51.994007 z M 64.125363 52.543324 L 94.381709 52.543324 L 94.381709 60.497425 L 84.230342 60.497425 L 84.230342 84.755236 L 74.27673 84.755236 L 74.27673 60.497425 L 64.125363 60.497425 L 64.125363 52.543324 z M 98.864131 52.543324 L 125.53893 52.543324 L 125.53893 59.420765 L 108.83972 59.420765 L 108.83972 64.540394 L 124.33044 64.540394 L 124.33044 71.110217 L 108.83972 71.110217 L 108.83972 77.460315 L 126.02233 77.460315 L 126.02233 84.755236 L 98.864131 84.755236 L 98.864131 52.543324 z M 161.61803 52.543324 L 191.87438 52.543324 L 191.87438 60.497425 L 181.72301 60.497425 L 181.72301 84.755236 L 171.7694 84.755236 L 171.7694 60.497425 L 161.61803 60.497425 L 161.61803 52.543324 z " />
    </g>
</svg>
