<?xml version="1.0" encoding="UTF-8" standalone="no"?>

<!--
  SPDX-License-Identifier: GPL-3.0-or-later
  SPDX-FileCopyrightText: 2020, 2022 Soren Stoutner <soren@stoutner.com>

  This file is part of Privacy Browser Android <https://www.stoutner.com/privacy-browser-android/>.

  It is a modified version of `add`, which is part of the Android Material icon set and is released under the Apache License 2.0 <https://fonts.google.com/icons>.

  This program is free software: you can redistribute it and/or modify it under
  the terms of the GNU General Public License as published by the Free Software
  Foundation, either version 3 of the License, or (at your option) any later
  version.

  This program is distributed in the hope that it will be useful, but WITHOUT
  ANY WARRANTY; without even the implied warranty of MERCHANTABILITY or FITNESS
  FOR A PARTICULAR PURPOSE.  See the GNU General Public License for more
  details.

  You should have received a copy of the GNU General Public License along with
  this program.  If not, see <https://www.gnu.org/licenses/>. -->

<svg
    xmlns="http://www.w3.org/2000/svg"
    viewBox="0 0 24 24"
    id="icon" >

    <path
        d="M3 5h2V3c-1.1 0-2 .9-2 2zm0 8h2v-2H3v2zm4 8h2v-2H7v2zM3 9h2V7H3v2zm10-6h-2v2h2V3zm6 0v2h2c0-1.1-.9-2-2-2zM5 21v-2H3c0 1.1.9 2 2 2zm-2-4h2v-2H3v2zM9 3H7v2h2V3zm2 18h2v-2h-2v2zm8-8h2v-2h-2v2zm0 8c1.1 0 2-.9 2-2h-2v2zm0-12h2V7h-2v2zm0 8h2v-2h-2v2zm-4 4h2v-2h-2v2zm0-16h2V3h-2v2zM7 17h10V7H7v10zm2-8h6v6H9V9z" />
</svg>
