<?xml version="1.0" encoding="UTF-8" standalone="no"?>

<!--
  SPDX-License-Identifier: GPL-3.0-or-later
  SPDX-FileCopyrightText: 2024 Soren Stoutner <soren@stoutner.com>

  This file is part of Privacy Browser Android <https://www.stoutner.com/privacy-browser-android/>.

  It is a modified version of `sort_by_alpha_rounded_fill0_weight400_grade0_24px`, which is part of the Android Material icon set and is released under the Apache License 2.0 <https://fonts.google.com/icons>.

  This program is free software: you can redistribute it and/or modify it under
  the terms of the GNU General Public License as published by the Free Software
  Foundation, either version 3 of the License, or (at your option) any later
  version.

  This program is distributed in the hope that it will be useful, but WITHOUT
  ANY WARRANTY; without even the implied warranty of MERCHANTABILITY or FITNESS
  FOR A PARTICULAR PURPOSE.  See the GNU General Public License for more
  details.

  You should have received a copy of the GNU General Public License along with
  this program.  If not, see <https://www.gnu.org/licenses/>. -->

<svg
    xmlns="http://www.w3.org/2000/svg"
    viewBox="0 -960 960 960"
    id="icon">

   <path
       d="m196-376-23 70q-4 11-14 18.5t-22 7.5q-20 0-32.5-16.5T100-333l120-321q5-12 15-19t23-7h30q13 0 23 7t15 19l121 323q7 19-4.5 35T411-280q-12 0-22-7.5T375-306l-25-70H196Zm24-68h104l-48-150h-6l-50 150Zm418 92h166q15 0 25.5 10.5T840-316q0 15-10.5 25.5T804-280H572q-10 0-17-7t-7-17v-38q0-7 2-13.5t7-11.5l193-241H592q-15 0-25.5-10.5T556-644q0-15 10.5-25.5T592-680h222q10 0 17 7t7 17v38q0 7-2 13.5t-7 11.5L638-352ZM384-760q-7 0-9.5-6t2.5-11l89-89q6-6 14-6t14 6l89 89q5 5 2.5 11t-9.5 6H384Zm82 666-89-89q-5-5-2.5-11t9.5-6h192q7 0 9.5 6t-2.5 11l-89 89q-6 6-14 6t-14-6Z" />
</svg>
