<?xml version="1.0" encoding="UTF-8" standalone="no"?>

<!--
  SPDX-License-Identifier: GPL-3.0-or-later
  SPDX-FileCopyrightText: 2024 Soren Stoutner <soren@stoutner.com>

  This file is part of Privacy Browser Android <https://www.stoutner.com/privacy-browser-android/>.

  It is a modified version of `vertical_align_bottom_rounded_fill0_weight400_grade0_24px`, which is part of the Android Material icon set and is released under the Apache License 2.0 <https://fonts.google.com/icons>.

  This program is free software: you can redistribute it and/or modify it under
  the terms of the GNU General Public License as published by the Free Software
  Foundation, either version 3 of the License, or (at your option) any later
  version.

  This program is distributed in the hope that it will be useful, but WITHOUT
  ANY WARRANTY; without even the implied warranty of MERCHANTABILITY or FITNESS
  FOR A PARTICULAR PURPOSE.  See the GNU General Public License for more
  details.

  You should have received a copy of the GNU General Public License along with
  this program.  If not, see <https://www.gnu.org/licenses/>. -->

<svg
    xmlns="http://www.w3.org/2000/svg"
    viewBox="0 -960 960 960"
    id="icon" >

    <path
        d="M200-120q-17 0-28.5-11.5T160-160q0-17 11.5-28.5T200-200h560q17 0 28.5 11.5T800-160q0 17-11.5 28.5T760-120H200Zm280-177q-8 0-15-2.5t-13-8.5L308-452q-11-11-11-28t11-28q11-11 28-11t28 11l76 76v-368q0-17 11.5-28.5T480-840q17 0 28.5 11.5T520-800v368l76-76q11-11 28-11t28 11q11 11 11 28t-11 28L508-308q-6 6-13 8.5t-15 2.5Z" />
</svg>
